<svg xmlns="http://www.w3.org/2000/svg" width="1366" height="860" viewBox="0 0 1366 860" font-family="Inter, system-ui, sans-serif">
  <defs>
    <linearGradient id="bg2" x1="0" y1="0" x2="0" y2="1">
      <stop offset="0" stop-color="#f4f8fb"/>
      <stop offset="1" stop-color="#eef4f8"/>
    </linearGradient>
    <linearGradient id="brand2" x1="0" y1="0" x2="1" y2="1">
      <stop offset="0" stop-color="#0877d8"/>
      <stop offset="1" stop-color="#065aa7"/>
    </linearGradient>
    <filter id="card2" x="-4%" y="-8%" width="108%" height="116%">
      <feDropShadow dx="0" dy="6" stdDeviation="10" flood-color="#0f172a" flood-opacity="0.07"/>
    </filter>
  </defs>

  <rect width="1366" height="860" fill="url(#bg2)"/>

  <!-- Sidebar (collapsed for focus) -->
  <rect x="0" y="0" width="84" height="860" fill="#ffffff"/>
  <rect x="83" y="0" width="1" height="860" fill="#e2e8f0"/>
  <rect x="26" y="22" width="32" height="32" rx="8" fill="url(#brand2)"/>
  <rect x="22" y="120" width="40" height="40" rx="10" fill="#eff6ff"/>
  <rect x="22" y="120" width="3" height="40" rx="2" fill="#0877d8"/>
  <text x="42" y="145" font-size="9" font-weight="900" fill="#0877d8" text-anchor="middle">BAN</text>
  <rect x="22" y="172" width="40" height="40" rx="10" fill="#f8fafc"/>
  <text x="42" y="197" font-size="9" font-weight="900" fill="#64748b" text-anchor="middle">UNI</text>
  <rect x="22" y="224" width="40" height="40" rx="10" fill="#f8fafc"/>
  <text x="42" y="249" font-size="9" font-weight="900" fill="#64748b" text-anchor="middle">MAP</text>
  <circle cx="42" cy="812" r="16" fill="#dbeafe"/>
  <text x="42" y="817" font-size="11" font-weight="900" fill="#0877d8" text-anchor="middle">O</text>

  <!-- Topbar -->
  <rect x="84" y="0" width="1282" height="64" fill="#ffffff"/>
  <rect x="84" y="63" width="1282" height="1" fill="#e2e8f0"/>
  <text x="116" y="32" font-size="18" font-weight="900" fill="#020617">Bancada do operador</text>
  <text x="116" y="50" font-size="12" font-weight="600" fill="#64748b">Unidades a atuar e próxima ação — sem ruído administrativo</text>
  <rect x="1198" y="16" width="140" height="32" rx="8" fill="#ecfdf5" stroke="#a7f3d0"/>
  <circle cx="1214" cy="32" r="4" fill="#10b981"/>
  <text x="1226" y="36" font-size="11" font-weight="800" fill="#047857">Posto LINHA-01</text>

  <!-- Focus KPI row -->
  <g filter="url(#card2)">
    <rect x="116" y="88" width="290" height="84" rx="12" fill="#ffffff"/>
    <rect x="422" y="88" width="290" height="84" rx="12" fill="#ffffff"/>
    <rect x="728" y="88" width="290" height="84" rx="12" fill="#ffffff"/>
  </g>
  <rect x="116" y="102" width="3" height="56" rx="2" fill="#3b82f6"/>
  <text x="134" y="116" font-size="10" font-weight="800" fill="#64748b" letter-spacing="0.5">A ATUAR AGORA</text>
  <text x="134" y="152" font-size="28" font-weight="900" fill="#020617">6</text>
  <rect x="422" y="102" width="3" height="56" rx="2" fill="#f97316"/>
  <text x="440" y="116" font-size="10" font-weight="800" fill="#64748b" letter-spacing="0.5">BLOQUEIOS</text>
  <text x="440" y="152" font-size="28" font-weight="900" fill="#020617">1</text>
  <rect x="728" y="102" width="3" height="56" rx="2" fill="#10b981"/>
  <text x="746" y="116" font-size="10" font-weight="800" fill="#64748b" letter-spacing="0.5">CONCLUÍDAS · TURNO</text>
  <text x="746" y="152" font-size="28" font-weight="900" fill="#020617">23</text>

  <!-- Task queue -->
  <g filter="url(#card2)"><rect x="116" y="190" width="800" height="630" rx="12" fill="#ffffff"/></g>
  <text x="140" y="224" font-size="15" font-weight="900" fill="#0b2948">Próximas unidades</text>
  <text x="140" y="242" font-size="11" fill="#64748b">Ordenadas por prioridade do turno</text>

  <!-- Task card 1 (next action highlighted) -->
  <rect x="140" y="260" width="752" height="96" rx="11" fill="#eff6ff" stroke="#bfdbfe"/>
  <rect x="140" y="260" width="4" height="96" rx="2" fill="#0877d8"/>
  <text x="164" y="290" font-size="15" font-weight="900" fill="#0b2948">U-1042 · Porta dianteira esq.</text>
  <rect x="164" y="304" width="120" height="24" rx="12" fill="#dbeafe"/><text x="224" y="320" font-size="10" font-weight="800" fill="#1d4ed8" text-anchor="middle">Em montagem</text>
  <text x="164" y="346" font-size="11" fill="#475569">Próxima ação: aplicar vedante e validar binário</text>
  <rect x="724" y="296" width="148" height="40" rx="9" fill="#0877d8"/><text x="798" y="321" font-size="12" font-weight="800" fill="#ffffff" text-anchor="middle">Registar conclusão</text>

  <!-- Task card 2 -->
  <rect x="140" y="368" width="752" height="84" rx="11" fill="#f8fafc" stroke="#e2e8f0"/>
  <text x="164" y="398" font-size="14" font-weight="800" fill="#0b2948">U-1043 · Porta traseira dta.</text>
  <rect x="164" y="410" width="110" height="22" rx="11" fill="#fef9c3"/><text x="219" y="425" font-size="10" font-weight="800" fill="#a16207" text-anchor="middle">Aguarda peça</text>
  <text x="164" y="446" font-size="11" fill="#475569">Próxima ação: confirmar chegada do lote L-228</text>
  <rect x="724" y="396" width="148" height="36" rx="9" fill="#ffffff" stroke="#cbd5e1"/><text x="798" y="419" font-size="12" font-weight="800" fill="#334155" text-anchor="middle">Ver detalhe</text>

  <!-- Task card 3 (blocked) -->
  <rect x="140" y="464" width="752" height="84" rx="11" fill="#fef2f2" stroke="#fecaca"/>
  <text x="164" y="494" font-size="14" font-weight="800" fill="#0b2948">U-1007 · Painel lateral</text>
  <rect x="164" y="506" width="90" height="22" rx="11" fill="#fee2e2"/><text x="209" y="521" font-size="10" font-weight="800" fill="#b91c1c" text-anchor="middle">Bloqueado</text>
  <text x="164" y="542" font-size="11" fill="#475569">Não conformidade aberta — encaminhado para Qualidade</text>
  <rect x="724" y="492" width="148" height="36" rx="9" fill="#ffffff" stroke="#cbd5e1"/><text x="798" y="515" font-size="12" font-weight="800" fill="#334155" text-anchor="middle">Trace rápido</text>

  <!-- Task card 4 -->
  <rect x="140" y="560" width="752" height="84" rx="11" fill="#f8fafc" stroke="#e2e8f0"/>
  <text x="164" y="590" font-size="14" font-weight="800" fill="#0b2948">U-1051 · Reforço estrutural</text>
  <rect x="164" y="602" width="100" height="22" rx="11" fill="#fef9c3"/><text x="214" y="617" font-size="10" font-weight="800" fill="#a16207" text-anchor="middle">Pendente</text>
  <text x="164" y="638" font-size="11" fill="#475569">Próxima ação: iniciar soldadura ponto 4–8</text>
  <rect x="724" y="588" width="148" height="36" rx="9" fill="#ffffff" stroke="#cbd5e1"/><text x="798" y="611" font-size="12" font-weight="800" fill="#334155" text-anchor="middle">Ver detalhe</text>

  <text x="140" y="690" font-size="11" font-weight="800" fill="#64748b">Concluídas neste turno</text>
  <rect x="140" y="704" width="60" height="24" rx="6" fill="#dcfce7"/><text x="170" y="720" font-size="10" font-weight="800" fill="#047857" text-anchor="middle">U-1039</text>
  <rect x="208" y="704" width="60" height="24" rx="6" fill="#dcfce7"/><text x="238" y="720" font-size="10" font-weight="800" fill="#047857" text-anchor="middle">U-1038</text>
  <rect x="276" y="704" width="60" height="24" rx="6" fill="#dcfce7"/><text x="306" y="720" font-size="10" font-weight="800" fill="#047857" text-anchor="middle">U-1036</text>
  <rect x="344" y="704" width="60" height="24" rx="6" fill="#dcfce7"/><text x="374" y="720" font-size="10" font-weight="800" fill="#047857" text-anchor="middle">U-1031</text>

  <!-- Right panel: unit timeline -->
  <g filter="url(#card2)"><rect x="936" y="190" width="402" height="630" rx="12" fill="#ffffff"/></g>
  <text x="960" y="224" font-size="14" font-weight="900" fill="#0b2948">U-1042 · linha do tempo</text>
  <text x="960" y="242" font-size="11" fill="#64748b">Histórico da unidade selecionada</text>

  <!-- timeline -->
  <line x1="972" y1="276" x2="972" y2="700" stroke="#e2e8f0" stroke-width="2"/>
  <circle cx="972" cy="284" r="7" fill="#10b981" stroke="#ffffff" stroke-width="2"/>
  <text x="990" y="282" font-size="12" font-weight="800" fill="#0b2948">Ordem criada</text>
  <text x="990" y="298" font-size="10" fill="#64748b">08:02 · ORD-3391</text>
  <circle cx="972" cy="348" r="7" fill="#10b981" stroke="#ffffff" stroke-width="2"/>
  <text x="990" y="346" font-size="12" font-weight="800" fill="#0b2948">Entrada LINHA-01</text>
  <text x="990" y="362" font-size="10" fill="#64748b">08:15 · suporte S-204</text>
  <circle cx="972" cy="412" r="7" fill="#3b82f6" stroke="#ffffff" stroke-width="2"/>
  <text x="990" y="410" font-size="12" font-weight="800" fill="#0b2948">Montagem iniciada</text>
  <text x="990" y="426" font-size="10" fill="#64748b">08:31 · operador O-12</text>
  <circle cx="972" cy="476" r="7" fill="#3b82f6" stroke="#ffffff" stroke-width="2"/>
  <text x="990" y="474" font-size="12" font-weight="800" fill="#0b2948">Material consumido</text>
  <text x="990" y="490" font-size="10" fill="#64748b">08:44 · lote L-221</text>
  <circle cx="972" cy="540" r="7" fill="#eab308" stroke="#ffffff" stroke-width="2"/>
  <text x="990" y="538" font-size="12" font-weight="800" fill="#0b2948">Aguarda vedante</text>
  <text x="990" y="554" font-size="10" fill="#64748b">09:02 · passo atual</text>

  <rect x="960" y="600" width="354" height="84" rx="10" fill="#eff6ff" stroke="#bfdbfe"/>
  <text x="976" y="626" font-size="12" font-weight="900" fill="#0b2948">Ação recomendada</text>
  <text x="976" y="646" font-size="11" fill="#475569">Aplicar vedante e registar binário para</text>
  <text x="976" y="662" font-size="11" fill="#475569">libertar a unidade para Pintura A.</text>
</svg>
